<svg width="64" height="64" viewBox="0 0 64 64" fill="none" shape-rendering="crispEdges" xmlns="http://www.w3.org/2000/svg">
<rect x="26" y="52" width="12" height="4" fill="#5B5B5B"/>
<rect x="14" y="28" width="36" height="24" fill="#5B5B5B"/>
<rect width="20" height="8" transform="matrix(1 0 0 -1 22 24)" fill="#5B5B5B"/>
<rect width="20" height="4" transform="matrix(1 0 0 -1 22 28)" fill="#5B5B5B"/>
<rect width="4" height="8" transform="matrix(1 0 0 -1 30 16)" fill="#5B5B5B"/>
<rect x="42" y="24" width="4" height="4" fill="#3D3B38"/>
<rect x="18" y="24" width="4" height="4" fill="#3D3B38"/>
<rect x="14" y="48" width="4" height="4" fill="#3D3B38"/>
<rect x="46" y="48" width="4" height="4" fill="#3D3B38"/>
<rect x="18" y="52" width="8" height="4" fill="#3D3B38"/>
<rect x="38" y="52" width="8" height="4" fill="#3D3B38"/>
<rect x="26" y="56" width="12" height="4" fill="#3D3B38"/>
<rect x="30" y="4" width="4" height="4" fill="#3D3B38"/>
<rect x="26" y="8" width="4" height="8" fill="#3D3B38"/>
<rect x="22" y="16" width="4" height="8" fill="#3D3B38"/>
<rect x="14" y="28" width="4" height="8" fill="#3D3B38"/>
<rect x="10" y="36" width="4" height="12" fill="#3D3B38"/>
<rect x="50" y="36" width="4" height="12" fill="#3D3B38"/>
<rect x="46" y="28" width="4" height="8" fill="#3D3B38"/>
<rect x="38" y="16" width="4" height="8" fill="#3D3B38"/>
<rect x="34" y="8" width="4" height="8" fill="#3D3B38"/>
<rect x="30" y="8" width="4" height="8" fill="white" fill-opacity="0.6"/>
<rect x="26" y="16" width="4" height="8" fill="white" fill-opacity="0.6"/>
<rect x="22" y="24" width="4" height="4" fill="white" fill-opacity="0.6"/>
<rect x="18" y="48" width="4" height="4" fill="white" fill-opacity="0.6"/>
<rect x="18" y="28" width="4" height="8" fill="white" fill-opacity="0.6"/>
<rect x="36" y="36" width="4" height="4" fill="white" fill-opacity="0.6"/>
<rect x="32" y="40" width="4" height="4" fill="white" fill-opacity="0.6"/>
<rect x="36" y="44" width="4" height="4" fill="white" fill-opacity="0.6"/>
<rect x="40" y="40" width="4" height="4" fill="white" fill-opacity="0.6"/>
<rect x="36" y="40" width="4" height="4" fill="white" fill-opacity="0.6"/>
<rect x="14" y="36" width="4" height="12" fill="white" fill-opacity="0.6"/>
</svg>
