<svg shape-rendering="crispEdges" width="128" height="128" viewBox="0 0 150 150" fill="none" xmlns="http://www.w3.org/2000/svg">
<rect x="16.9" y="16.9" width="117" height="94.9" fill="#D3C7AD"/>
<rect x="20.8" y="111.8" width="5.2" height="5.2" fill="#3D3D3D"/>
<rect x="16.9" y="107.9" width="5.2" height="5.2" fill="#3D3D3D"/>
<rect x="20.8" y="13" width="109.2" height="5.2" fill="#3D3D3D"/>
<rect x="16.9" y="16.9" width="5.2" height="5.2" fill="#3D3D3D"/>
<rect x="128.7" y="16.9" width="5.2" height="5.2" fill="#3D3D3D"/>
<rect x="13" y="20.8" width="5.2" height="88.4" fill="#3D3D3D"/>
<rect x="128.7" y="107.9" width="5.2" height="5.2" fill="#3D3D3D"/>
<rect x="132.6" y="20.8" width="5.2" height="88.4" fill="#3D3D3D"/>
<rect x="26" y="111.8" width="104" height="5.2" fill="#3D3D3D"/>
<rect width="9.1" height="3.9" transform="matrix(1 0 0 -1 74.1 124.8)" fill="#D3C7AD"/>
<rect x="74.1" y="124.8" width="5.2" height="6.5" fill="#D3C7AD"/>
<rect width="16.9" height="9.1" transform="matrix(1 0 0 -1 72.8 120.9)" fill="#D3C7AD"/>
<rect x="71.5" y="131.3" width="5.2" height="5.2" fill="#3D3D3D"/>
<rect x="68.9" y="111.8" width="5.2" height="26" fill="#3D3D3D"/>
<rect x="75.4" y="127.4" width="5.2" height="5.2" fill="#3D3D3D"/>
<rect x="79.3" y="123.5" width="5.2" height="5.2" fill="#3D3D3D"/>
<rect x="83.2" y="119.6" width="5.2" height="5.2" fill="#3D3D3D"/>
<rect x="87.1" y="115.7" width="5.2" height="5.2" fill="#3D3D3D"/>
<path d="M42.5 83.75V71.25H55V83.75H42.5ZM64.5 83.75V71.25H77V83.75H64.5Z" fill="#595E6F"/>
</svg>
